<?xml version="1.0" encoding="iso-8859-1"?>
<!-- Uploaded to: SVG Repo, www.svgrepo.com, Generator: SVG Repo Mixer Tools -->
<svg height="800px" width="800px" version="1.1" id="Layer_1" xmlns="http://www.w3.org/2000/svg" xmlns:xlink="http://www.w3.org/1999/xlink" 
	 viewBox="0 0 512 512" xml:space="preserve">
<path style="fill:#D7D8D9;" d="M430.933,102.4H115.2c-4.713,0-8.533,3.821-8.533,8.533v392.533c0,4.713,3.821,8.533,8.533,8.533
	h315.733c4.713,0,8.533-3.821,8.533-8.533V110.933C439.467,106.221,435.646,102.4,430.933,102.4z"/>
<path style="fill:#EBEBEC;" d="M388.267,68.267h-307.2c-4.713,0-8.533,3.821-8.533,8.533v384c0,4.713,3.821,8.533,8.533,8.533h307.2
	c4.713,0,8.533-3.821,8.533-8.533v-384C396.8,72.087,392.979,68.267,388.267,68.267z"/>
<path style="fill:#D7D8D9;" d="M98.133,460.8v-384c0-4.713,3.821-8.533,8.533-8.533h-25.6c-4.713,0-8.533,3.821-8.533,8.533v384
	c0,4.713,3.821,8.533,8.533,8.533h25.6C101.954,469.333,98.133,465.513,98.133,460.8z"/>
<path style="fill:#F58F6C;" d="M320,213.333h-68.267c-4.713,0-8.533-3.821-8.533-8.533v-68.267c0-4.713,3.821-8.533,8.533-8.533H320
	c4.713,0,8.533,3.821,8.533,8.533V204.8C328.533,209.513,324.713,213.333,320,213.333z M260.267,196.267h51.2v-51.2h-51.2V196.267z"
	/>
<g>
	<path style="fill:#9B9DA1;" d="M200.533,162.133h-76.8c-4.713,0-8.533-3.821-8.533-8.533c0-4.713,3.821-8.533,8.533-8.533h76.8
		c4.713,0,8.533,3.821,8.533,8.533C209.067,158.313,205.246,162.133,200.533,162.133z"/>
	<path style="fill:#9B9DA1;" d="M174.933,196.267h-51.2c-4.713,0-8.533-3.821-8.533-8.533c0-4.713,3.821-8.533,8.533-8.533h51.2
		c4.713,0,8.533,3.821,8.533,8.533C183.467,192.446,179.646,196.267,174.933,196.267z"/>
</g>
<path style="fill:#F58F6C;" d="M320,324.267h-68.267c-4.713,0-8.533-3.821-8.533-8.533v-68.267c0-4.713,3.821-8.533,8.533-8.533H320
	c4.713,0,8.533,3.821,8.533,8.533v68.267C328.533,320.446,324.713,324.267,320,324.267z M260.267,307.2h51.2V256h-51.2V307.2z"/>
<g>
	<path style="fill:#9B9DA1;" d="M200.533,273.067h-76.8c-4.713,0-8.533-3.821-8.533-8.533c0-4.713,3.821-8.533,8.533-8.533h76.8
		c4.713,0,8.533,3.821,8.533,8.533C209.067,269.246,205.246,273.067,200.533,273.067z"/>
	<path style="fill:#9B9DA1;" d="M183.467,307.2h-59.733c-4.713,0-8.533-3.821-8.533-8.533s3.821-8.533,8.533-8.533h59.733
		c4.713,0,8.533,3.821,8.533,8.533S188.179,307.2,183.467,307.2z"/>
</g>
<path style="fill:#F58F6C;" d="M320,435.2h-68.267c-4.713,0-8.533-3.821-8.533-8.533V358.4c0-4.713,3.821-8.533,8.533-8.533H320
	c4.713,0,8.533,3.821,8.533,8.533v68.267C328.533,431.379,324.713,435.2,320,435.2z M260.267,418.133h51.2v-51.2h-51.2V418.133z"/>
<g>
	<path style="fill:#9B9DA1;" d="M200.533,384h-76.8c-4.713,0-8.533-3.821-8.533-8.533c0-4.713,3.821-8.533,8.533-8.533h76.8
		c4.713,0,8.533,3.821,8.533,8.533C209.067,380.179,205.246,384,200.533,384z"/>
	<path style="fill:#9B9DA1;" d="M166.4,418.133h-42.667c-4.713,0-8.533-3.821-8.533-8.533c0-4.713,3.821-8.533,8.533-8.533H166.4
		c4.713,0,8.533,3.821,8.533,8.533C174.933,414.313,171.113,418.133,166.4,418.133z"/>
</g>
<path style="fill:#6AC8B7;" d="M294.402,187.733c-2.199,0-4.384-0.847-6.036-2.499l-17.067-17.067
	c-3.333-3.333-3.333-8.735,0-12.068c3.332-3.331,8.735-3.331,12.067,0l11.955,11.955l53.851-38.465
	c3.836-2.739,9.165-1.85,11.904,1.983c2.739,3.836,1.851,9.165-1.984,11.904l-59.733,42.667
	C297.867,187.211,296.13,187.733,294.402,187.733z"/>
<path style="fill:#E5563C;" d="M292.789,54.743c-1.604-2.225-4.179-3.543-6.923-3.543h-102.4c-2.743,0-5.318,1.318-6.923,3.543
	c-1.604,2.225-2.041,5.086-1.173,7.689l17.067,51.2c1.162,3.485,4.422,5.835,8.095,5.835h68.267c3.673,0,6.933-2.35,8.095-5.835
	l17.067-51.2C294.83,59.829,294.394,56.969,292.789,54.743z"/>
<path style="fill:#CF442B;" d="M209.505,113.632l-17.067-51.2c-0.867-2.603-0.431-5.463,1.173-7.689
	c1.603-2.225,4.178-3.543,6.922-3.543h-17.067c-2.743,0-5.318,1.318-6.923,3.543c-1.604,2.225-2.041,5.086-1.173,7.689l17.067,51.2
	c1.162,3.485,4.422,5.835,8.095,5.835h17.067C213.927,119.467,210.666,117.117,209.505,113.632z"/>
<path style="fill:#606268;" d="M275.9,13.267C279.614,7.696,275.475,0,268.8,0h-68.267c-6.675,0-10.814,7.696-7.1,13.267
	l15.633,23.45v82.75h17.067V34.133c0-1.684-0.498-3.331-1.434-4.734l-8.222-12.333h36.378l-8.222,12.334
	c-0.935,1.402-1.434,3.049-1.434,4.733v85.333h17.067v-82.75L275.9,13.267z"/>
</svg>